<svg id="Layer_1" data-name="Layer 1" xmlns="http://www.w3.org/2000/svg" viewBox="0 0 892.45 449.97"><defs><style>.cls-1{fill:#ec108d;}.cls-2{fill:#30aae1;}.cls-3{fill:#1e94b1;}.cls-4{fill:#a8a9ae;}.cls-5{fill:#59585a;}.cls-6{fill:#6e6e74;}.cls-7{fill:#fff;}</style></defs><path class="cls-1" d="M356.36,167.73c0-58,35.76-93.24,94-93.24,35.76,0,61.56,13.54,78.93,34.74L501.45,133c-10.47-14.56-27.08-24-50.07-24-35.51,0-57.48,21.71-57.48,58.75,0,36.78,22,60,57.48,60,23,0,39.59-9.45,50.07-24l27.84,23.76c-17.37,21-41.89,34.23-78.93,34.23C392.12,261.73,356.36,225.71,356.36,167.73Z" transform="translate(-74.4 -74.49)"/><path class="cls-1" d="M542.32,188.67c0-44.19,26.06-72,67.95-72,14.56,0,28.87,3.32,40.87,12.26v-9.45h34.74V258.15H651.14V247.93c-9.71,8.68-24.52,13-40.11,13C567.87,261,542.32,232.61,542.32,188.67Zm109.59,28.61V160.57c-9.2-9.45-22.48-13-34.23-13-24.78,0-39.85,15.07-39.85,41.13,0,25.54,14.56,41.38,40.11,41.38C629.43,230.05,642.71,226.73,651.91,217.28Z" transform="translate(-74.4 -74.49)"/><path class="cls-1" d="M753.57,119.45v19.67c9.2-13.54,23.5-22,42.4-22.73,3.07,0,6.64,0,9.45,1V156a59.72,59.72,0,0,0-16.6-2.55c-25.54,0-35.25,19.16-35.25,37.55v67.18h-35V119.45Z" transform="translate(-74.4 -74.49)"/><path class="cls-1" d="M959.46,199.4H852.17c3.83,20.69,18.14,32.19,40.87,32.19,16.09,0,30.4-6.13,39.85-17.63l22,18.65C942.34,250,922.16,261,890.49,261c-46.24,0-73.57-28.35-73.57-72.29s29.38-72.29,71.78-72.29c47.51,0,71,30.14,71,72.8C959.71,192.5,959.46,199.4,959.46,199.4Zm-107-25.29h73.06c-2-15.07-13-28.87-36.79-28.87C871.07,145.25,856.77,154.19,852.43,174.11Z" transform="translate(-74.4 -74.49)"/><path class="cls-2" d="M649.1,415.3c0,34.74-22.48,53.39-65.91,53.39H495.32V288.59H583.7c32.44,0,49.3,14.31,49.3,42.15,0,19.16-7.92,31.93-22,37.29C634,372.89,649.1,389,649.1,415.3Zm-76.38-53.39c17.88,0,26.82-7.15,26.82-22.22,0-13.54-8.68-20.18-26.31-20.18H530.31v42.4Zm38.57,50.58c0-15.84-10.47-25-34.74-25H531.08V438h46.24C601.33,438,611.29,429.35,611.29,412.49Z" transform="translate(-74.4 -74.49)"/><path class="cls-2" d="M664.42,399.2c0-43.94,29.63-72.29,76.38-72.29s76.38,28.35,76.38,72.29c0,44.19-29.63,72.55-76.38,72.55S664.42,443.4,664.42,399.2Zm117.25,0c0-24.52-16.35-40.87-40.87-40.87s-40.87,16.35-40.87,40.87c0,24.78,16.35,41.13,40.87,41.13S781.67,424,781.67,399.2Z" transform="translate(-74.4 -74.49)"/><path class="cls-2" d="M894.06,424.75l-32.7,43.94H821.51l51.34-70.25L822.27,330H863.4l30.65,43.43L925.47,330h40.62L916,397.93l50.83,70.76H926.74Z" transform="translate(-74.4 -74.49)"/><polygon class="cls-2" points="199.35 449.97 199.35 275.61 52.92 250.32 52.92 419.98 199.35 449.97"/><polygon class="cls-3" points="315.19 394.69 199.35 449.97 199.35 275.61 315.19 224.74 315.19 394.69"/><polygon class="cls-4" points="52.92 250.32 15.29 297.37 164.36 329.42 199.35 275.61 52.92 250.32"/><polygon class="cls-4" points="242.86 319.32 199.35 275.61 315.19 224.74 351.45 266.01 242.86 319.32"/><polygon class="cls-4" points="370.86 219.35 315.19 224.74 199.35 202.1 229.34 193.58 370.86 219.35"/><polygon class="cls-4" points="52.92 250.32 0 250.32 129.66 203.28 199.35 202.1 52.92 250.32"/><polygon class="cls-5" points="199.35 275.61 199.35 202.1 52.92 250.32 199.35 275.61"/><polygon class="cls-6" points="315.19 224.74 199.35 275.61 199.35 202.1 315.19 224.74"/><path class="cls-7" d="M344.1,193.12c-6-7.51-17.19-16.65-36.91-17.58-14.1-.66-25.28,3.18-33.45,8.73-8.17-5.55-19.36-9.39-33.45-8.73-19.72.93-30.95,10.07-36.91,17.58a49.24,49.24,0,0,0-10.33,30.55c0,12,5.49,26.11,15.45,39.74C221,280.55,240.35,297,265.92,312.29l7.81,4.67,7.81-4.67c25.57-15.3,44.89-31.74,57.42-48.88,10-13.63,15.45-27.74,15.45-39.74A49.11,49.11,0,0,0,344.1,193.12Z" transform="translate(-74.4 -74.49)"/><path class="cls-1" d="M306.48,190.74c-23.57-1.11-31.91,13.68-32.73,15.26-.82-1.58-9.16-16.37-32.73-15.26-24.89,1.18-32.73,19.41-32.73,32.93s11.57,43.32,65.47,75.56c53.9-32.24,65.47-62,65.47-75.56S331.37,191.92,306.48,190.74Z" transform="translate(-74.4 -74.49)"/><path class="cls-7" d="M355.94,425.56V413L347,416.37c.07-2.67,3.14-9.26,6.58-16.06s2.83-14.37-.54-14.37-4.43,2.06-5.81,6.12-4.28,11.39-9.71,17.05a28.8,28.8,0,0,0-6.79,13.35l-20,7.49a62.51,62.51,0,0,0,2.75,18.86c2.06,7,6.31,12.37,11.09,14.82a15.4,15.4,0,0,0-1.53,7.24c.34,4.24,1,7,5.43,5.27s11.51-4.82,14.52-6.08,5.05-3.58,4.48-8.37a12.92,12.92,0,0,0-2.39-6l.2-.27A53.67,53.67,0,0,0,355.94,425.56Zm-11-20.36c2.83-4.2,5.66-15.29,7.49-14.22s-2.06,9.78-4.89,14.75-3,11.36-3,11.36l-9.68,3.9C335.3,416,342.1,409.41,344.93,405.2Zm-10.09,63.53c-4,1.73-8.71,4-9.17,1.53s1.63-5.86,1.63-5.86a14.86,14.86,0,0,0,15-6.06c.76.15,2,2.45,2.09,5.05S338.86,467,334.84,468.73Zm5.2-12.79c-6.93,6-14.47,5.4-20.28-2.75s-6.42-19.67-6.42-19.67l40.26-15C353,438.05,347,449.92,340,455.94Z" transform="translate(-74.4 -74.49)"/></svg>